<svg width="48" height="48" viewBox="0 0 48 48" fill="none" xmlns="http://www.w3.org/2000/svg">
<rect width="48" height="48" fill="#000029"/>
<path d="M18.8462 9.5C20.9675 9.5 23.0681 9.92602 25.028 10.7537C26.9878 11.5815 28.7686 12.7947 30.2686 14.3241C31.7687 15.8536 32.9586 17.6693 33.7704 19.6676C34.5822 21.6659 35 23.8076 35 25.9706L31.7692 25.9706C31.7692 24.2402 31.435 22.5268 30.7855 20.9282C30.1361 19.3295 29.1842 17.877 27.9841 16.6534C26.7841 15.4299 25.3595 14.4593 23.7916 13.7971C22.2237 13.1349 20.5432 12.7941 18.8462 12.7941V9.5Z" fill="white"/>
<path d="M23.1734 15.3188C21.8015 14.7394 20.3311 14.4412 18.8462 14.4412L18.8462 17.7353C19.9068 17.7353 20.9571 17.9483 21.9371 18.3622C22.917 18.776 23.8074 19.3826 24.5574 20.1474C25.2716 20.8755 25.8451 21.7335 26.2488 22.6765C26.269 22.7238 26.2889 22.7713 26.3083 22.8191C26.7142 23.8182 26.9231 24.8891 26.9231 25.9706C26.9231 27.0521 26.7142 28.1229 26.3083 29.1221C25.9024 30.1212 25.3074 31.0291 24.5574 31.7938C23.8074 32.5585 22.917 33.1651 21.9371 33.579C20.9571 33.9929 19.9068 34.2059 18.8462 34.2059V37.5C20.3311 37.5 21.8015 37.2018 23.1734 36.6224C24.5453 36.043 25.7919 35.1937 26.8419 34.1231C27.8919 33.0525 28.7248 31.7815 29.2931 30.3827C29.8614 28.9839 30.1538 27.4847 30.1538 25.9706C30.1538 24.853 29.9945 23.7435 29.6825 22.6765C29.5718 22.2979 29.4419 21.9248 29.2931 21.5585C28.7248 20.1597 27.8919 18.8887 26.8419 17.8181C25.7919 16.7475 24.5453 15.8982 23.1734 15.3188Z" fill="white"/>
<path d="M21.3704 19.757C20.5701 19.4191 19.7124 19.2451 18.8462 19.2451H17.2308V16.3627V9.5H14V16.3627V22.5392H17.2308L18.8462 22.5406C19.2879 22.5406 19.7254 22.6293 20.1335 22.8017C20.5417 22.9741 20.9125 23.2267 21.2249 23.5452C21.5373 23.8637 21.7851 24.2418 21.9541 24.658C22.1232 25.0741 22.2102 25.5202 22.2102 25.9706C22.2102 26.421 22.1232 26.867 21.9541 27.2832C21.7851 27.6993 21.5373 28.0775 21.2249 28.396C20.9125 28.7145 20.5417 28.9671 20.1335 29.1395C19.7254 29.3119 19.2879 29.4006 18.8462 29.4006L17.2308 29.402H14V32.6961H18.8462C19.7124 32.6961 20.5701 32.5221 21.3704 32.1841C22.1707 31.8461 22.8978 31.3508 23.5103 30.7262C24.1228 30.1017 24.6087 29.3603 24.9402 28.5443C25.2717 27.7283 25.4423 26.8538 25.4423 25.9706C25.4423 25.0874 25.2717 24.2128 24.9402 23.3969C24.6087 22.5809 24.1228 21.8395 23.5103 21.2149C22.8978 20.5904 22.1707 20.095 21.3704 19.757Z" fill="white"/>
</svg>
