<svg width="96" height="96" viewBox="0 0 96 96" fill="none" xmlns="http://www.w3.org/2000/svg">
<path d="M14 0H24.9091V10.9091L24.9091 34.9091C30.6957 34.9091 36.2452 37.2078 40.3369 41.2995C44.4286 45.3912 46.7273 50.9407 46.7273 56.7273C46.7273 62.5138 44.4286 68.0634 40.3369 72.1551C36.2452 76.2468 30.6956 78.5455 24.9091 78.5455H14V67.6364H24.9091C27.8024 67.6364 30.5771 66.487 32.623 64.4412C34.6689 62.3953 35.8182 59.6206 35.8182 56.7273C35.8182 53.834 34.6689 51.0592 32.623 49.0134C30.5771 46.9675 27.8024 45.8182 24.9091 45.8182H14V0Z" fill="#010180"/>
<path d="M64.1819 56.7273C64.1819 78.417 46.5988 96 24.9091 96V85.0909C40.5739 85.0909 53.2728 72.3921 53.2728 56.7273C53.2728 43.3153 43.9638 32.0775 31.4546 29.1226V17.9975C50.0287 21.1137 64.1819 37.2677 64.1819 56.7273Z" fill="#010180"/>
<path d="M31.4546 11.3731C53.6587 14.5491 70.7273 33.6449 70.7273 56.7273H81.6364C81.6364 27.6114 59.7011 3.61877 31.4546 0.373543V11.3731Z" fill="#010180"/>
</svg>
